ffmpeg started on 2025-05-28 at 11:20:18
Report written to "D:\Convert\FFMetrics\reports\psnr_report-6.txt"
Log level: 32
Command line:
ffmpeg -hide_banner -nostdin -i "G:\\\xc0\xed\xe8\xec\xe5\\\xce\xed\xe3\xee\xe8\xed\xe3\xe8\\!_36_\xce\xf1\xe5\xed\xfc_2024\\JamClub\\SAO\\\xc0\xeb\xfc\xf2\xe5\xf0\xed\xe0\xf2\xe8\xe2\xed\xe0\xff \xab\xcf\xf0\xe8\xe7\xf0\xe0\xf7\xed\xe0\xff \xef\xf3\xeb\xff\xbb\\\xd2\xc2-2\\JamClub_Sword_Art_Online_Alternative_Gun_Gale_Online_II_01_1080p_HEVC.mkv" -i "G:\\\xc0\xed\xe8\xec\xe5\\\xce\xed\xe3\xee\xe8\xed\xe3\xe8\\!_36_\xce\xf1\xe5\xed\xfc_2024\\JamClub\\SAO\\\xc0\xeb\xfc\xf2\xe5\xf0\xed\xe0\xf2\xe8\xe2\xed\xe0\xff \xab\xcf\xf0\xe8\xe7\xf0\xe0\xf7\xed\xe0\xff \xef\xf3\xeb\xff\xbb\\\xd2\xc2-2\\JamClub_Sword_Art_Online_Alternative_Gun_Gale_Online_II_01_1080p.mp4" -lavfi "[0:v]settb=AVTB,setpts=PTS-STARTPTS,format=pix_fmts=yuv420p10,fps=24000/1001,scale=1920:1080:flags=bicubic[main];[1:v]settb=AVTB,setpts=PTS-STARTPTS,format=pix_fmts=yuv420p,fps=24000/1001,scale=1920:1080:flags=bicubic[ref];[main][ref]psnr=eof_action=endall:stats_file='D\\:/Convert/FFMetrics/logs/psnr_logfile-6.txt'" -f null -
Input #0, matroska,webm, from 'G:\Аниме\Онгоинги\!_36_Осень_2024\JamClub\SAO\Альтернативная «Призрачная пуля»\ТВ-2\JamClub_Sword_Art_Online_Alternative_Gun_Gale_Online_II_01_1080p_HEVC.mkv':
  Metadata:
    COMPATIBLE_BRANDS: isomiso2avc1mp41
    MAJOR_BRAND     : isom
    MINOR_VERSION   : 512
    ENCODER         : Lavf61.7.100
  Duration: 00:24:02.26, start: -0.001000, bitrate: 1373 kb/s
  Stream #0:0: Video: hevc (Main 10), yuv420p10le(tv, bt709, progressive), 1920x1080 [SAR 1:1 DAR 16:9], 23.98 fps, 23.98 tbr, 1k tbn (default)
      Metadata:
        HANDLER_NAME    : VideoHandler
        VENDOR_ID       : [0][0][0][0]
        ENCODER         : Lavc61.19.100 libx265
        BPS             : 1175871
        DURATION        : 00:24:02.190708333
        NUMBER_OF_FRAMES: 34578
        NUMBER_OF_BYTES : 211978707
        _STATISTICS_WRITING_APP: mkvpropedit v66.0.0 ('Josie') 64-bit
        _STATISTICS_WRITING_DATE_UTC: 2025-05-27 14:58:45
        _STATISTICS_TAGS: BPS DURATION NUMBER_OF_FRAMES NUMBER_OF_BYTES
  Stream #0:1(eng): Audio: aac (LC), 48000 Hz, stereo, fltp (default)
      Metadata:
        HANDLER_NAME    : SoundHandler
        VENDOR_ID       : [0][0][0][0]
        ENCODER         : Lavc61.19.100 aac
        BPS             : 193941
        DURATION        : 00:24:02.221000000
        NUMBER_OF_FRAMES: 67605
        NUMBER_OF_BYTES : 34963311
        _STATISTICS_WRITING_APP: mkvpropedit v66.0.0 ('Josie') 64-bit
        _STATISTICS_WRITING_DATE_UTC: 2025-05-27 14:58:45
        _STATISTICS_TAGS: BPS DURATION NUMBER_OF_FRAMES NUMBER_OF_BYTES
Input #1, mov,mp4,m4a,3gp,3g2,mj2, from 'G:\Аниме\Онгоинги\!_36_Осень_2024\JamClub\SAO\Альтернативная «Призрачная пуля»\ТВ-2\JamClub_Sword_Art_Online_Alternative_Gun_Gale_Online_II_01_1080p.mp4':
  Metadata:
    major_brand     : isom
    minor_version   : 512
    compatible_brands: isomiso2avc1mp41
    encoder         : Lavf60.16.100
  Duration: 00:24:02.24, start: 0.000000, bitrate: 4502 kb/s
  Stream #1:0[0x1](und): Video: h264 (High) (avc1 / 0x31637661), yuv420p(progressive), 1920x1080 [SAR 1:1 DAR 16:9], 4304 kb/s, 23.98 fps, 23.98 tbr, 90k tbn (default)
      Metadata:
        handler_name    : VideoHandler
        vendor_id       : [0][0][0][0]
  Stream #1:1[0x2](eng): Audio: aac (LC) (mp4a / 0x6134706D), 48000 Hz, stereo, fltp, 191 kb/s (default)
      Metadata:
        handler_name    : SoundHandler
        vendor_id       : [0][0][0][0]
Stream mapping:
  Stream #0:0 (hevc) -> settb:default
  Stream #1:0 (h264) -> settb:default
  psnr:default -> Stream #0:0 (wrapped_avframe)
  Stream #0:1 -> #0:1 (aac (native) -> pcm_s16le (native))
Output #0, null, to 'pipe:':
  Metadata:
    COMPATIBLE_BRANDS: isomiso2avc1mp41
    MAJOR_BRAND     : isom
    MINOR_VERSION   : 512
    encoder         : Lavf61.7.100
  Stream #0:0: Video: wrapped_avframe, yuv420p10le(tv, bt709, progressive), 1920x1080 [SAR 1:1 DAR 16:9], q=2-31, 200 kb/s, 23.98 fps, 23.98 tbn
      Metadata:
        encoder         : Lavc61.19.100 wrapped_avframe
  Stream #0:1(eng): Audio: pcm_s16le, 48000 Hz, stereo, s16, 1536 kb/s (default)
      Metadata:
        HANDLER_NAME    : SoundHandler
        VENDOR_ID       : [0][0][0][0]
        _STATISTICS_TAGS: BPS DURATION NUMBER_OF_FRAMES NUMBER_OF_BYTES
        BPS             : 193941
        DURATION        : 00:24:02.221000000
        NUMBER_OF_FRAMES: 67605
        NUMBER_OF_BYTES : 34963311
        _STATISTICS_WRITING_APP: mkvpropedit v66.0.0 ('Josie') 64-bit
        _STATISTICS_WRITING_DATE_UTC: 2025-05-27 14:58:45
        encoder         : Lavc61.19.100 pcm_s16le
frame=  111 fps=0.0 q=-0.0 size=N/A time=00:00:04.62 bitrate=N/A speed=9.08x    frame=  270 fps=262 q=-0.0 size=N/A time=00:00:11.26 bitrate=N/A speed=10.9x    frame=  462 fps=300 q=-0.0 size=N/A time=00:00:19.26 bitrate=N/A speed=12.5x    frame=  708 fps=343 q=-0.0 size=N/A time=00:00:29.52 bitrate=N/A speed=14.3x    frame=  874 fps=341 q=-0.0 size=N/A time=00:00:36.45 bitrate=N/A speed=14.2x    frame= 1068 fps=346 q=-0.0 size=N/A time=00:00:44.54 bitrate=N/A speed=14.4x    frame= 1226 fps=340 q=-0.0 size=N/A time=00:00:51.13 bitrate=N/A speed=14.2x    frame= 1406 fps=342 q=-0.0 size=N/A time=00:00:58.64 bitrate=N/A speed=14.2x    frame= 1575 fps=339 q=-0.0 size=N/A time=00:01:05.69 bitrate=N/A speed=14.2x    frame= 1796 fps=349 q=-0.0 size=N/A time=00:01:14.90 bitrate=N/A speed=14.6x    frame= 2036 fps=359 q=-0.0 size=N/A time=00:01:24.91 bitrate=N/A speed=  15x    frame= 2269 fps=367 q=-0.0 size=N/A time=00:01:34.63 bitrate=N/A speed=15.3x    frame= 2543 fps=380 q=-0.0 size=N/A time=00:01:46.06 bitrate=N/A speed=15.8x    frame= 2736 fps=380 q=-0.0 size=N/A time=00:01:54.11 bitrate=N/A speed=15.8x    frame= 2994 fps=387 q=-0.0 size=N/A time=00:02:04.87 bitrate=N/A speed=16.1x    frame= 3256 fps=395 q=-0.0 size=N/A time=00:02:15.80 bitrate=N/A speed=16.5x    frame= 3499 fps=400 q=-0.0 size=N/A time=00:02:25.93 bitrate=N/A speed=16.7x    frame= 3747 fps=404 q=-0.0 size=N/A time=00:02:36.28 bitrate=N/A speed=16.8x    frame= 4006 fps=409 q=-0.0 size=N/A time=00:02:47.08 bitrate=N/A speed=17.1x    frame= 4252 fps=413 q=-0.0 size=N/A time=00:02:57.34 bitrate=N/A speed=17.2x    frame= 4473 fps=413 q=-0.0 size=N/A time=00:03:06.56 bitrate=N/A speed=17.2x    frame= 4701 fps=415 q=-0.0 size=N/A time=00:03:16.07 bitrate=N/A speed=17.3x    frame= 4911 fps=414 q=-0.0 size=N/A time=00:03:24.82 bitrate=N/A speed=17.3x    frame= 5138 fps=416 q=-0.0 size=N/A time=00:03:34.29 bitrate=N/A speed=17.3x    frame= 5404 fps=419 q=-0.0 size=N/A time=00:03:45.39 bitrate=N/A speed=17.5x    frame= 5614 fps=419 q=-0.0 size=N/A time=00:03:54.15 bitrate=N/A speed=17.5x    frame= 5866 fps=422 q=-0.0 size=N/A time=00:04:04.66 bitrate=N/A speed=17.6x    frame= 6130 fps=425 q=-0.0 size=N/A time=00:04:15.67 bitrate=N/A speed=17.7x    frame= 6365 fps=426 q=-0.0 size=N/A time=00:04:25.47 bitrate=N/A speed=17.8x    frame= 6621 fps=428 q=-0.0 size=N/A time=00:04:36.15 bitrate=N/A speed=17.9x    frame= 6887 fps=431 q=-0.0 size=N/A time=00:04:47.24 bitrate=N/A speed=  18x    frame= 7136 fps=433 q=-0.0 size=N/A time=00:04:57.63 bitrate=N/A speed=  18x    frame= 7351 fps=432 q=-0.0 size=N/A time=00:05:06.59 bitrate=N/A speed=  18x    frame= 7591 fps=433 q=-0.0 size=N/A time=00:05:16.60 bitrate=N/A speed=18.1x    frame= 7852 fps=435 q=-0.0 size=N/A time=00:05:27.49 bitrate=N/A speed=18.1x    frame= 8112 fps=437 q=-0.0 size=N/A time=00:05:38.33 bitrate=N/A speed=18.2x    frame= 8353 fps=438 q=-0.0 size=N/A time=00:05:48.38 bitrate=N/A speed=18.3x    frame= 8608 fps=439 q=-0.0 size=N/A time=00:05:59.02 bitrate=N/A speed=18.3x    frame= 8853 fps=440 q=-0.0 size=N/A time=00:06:09.24 bitrate=N/A speed=18.4x    frame= 9065 fps=440 q=-0.0 size=N/A time=00:06:18.08 bitrate=N/A speed=18.3x    frame= 9297 fps=440 q=-0.0 size=N/A time=00:06:27.76 bitrate=N/A speed=18.3x    frame= 9527 fps=440 q=-0.0 size=N/A time=00:06:37.35 bitrate=N/A speed=18.4x    frame= 9708 fps=438 q=-0.0 size=N/A time=00:06:44.90 bitrate=N/A speed=18.3x    frame= 9903 fps=437 q=-0.0 size=N/A time=00:06:53.03 bitrate=N/A speed=18.2x    frame=10175 fps=439 q=-0.0 size=N/A time=00:07:04.38 bitrate=N/A speed=18.3x    frame=10423 fps=439 q=-0.0 size=N/A time=00:07:14.72 bitrate=N/A speed=18.3x    frame=10664 fps=440 q=-0.0 size=N/A time=00:07:24.77 bitrate=N/A speed=18.4x    frame=10925 fps=442 q=-0.0 size=N/A time=00:07:35.66 bitrate=N/A speed=18.4x    frame=11184 fps=443 q=-0.0 size=N/A time=00:07:46.46 bitrate=N/A speed=18.5x    frame=11424 fps=443 q=-0.0 size=N/A time=00:07:56.47 bitrate=N/A speed=18.5x    frame=11683 fps=444 q=-0.0 size=N/A time=00:08:07.27 bitrate=N/A speed=18.5x    frame=11919 fps=445 q=-0.0 size=N/A time=00:08:17.12 bitrate=N/A speed=18.6x    frame=12179 fps=446 q=-0.0 size=N/A time=00:08:27.96 bitrate=N/A speed=18.6x    frame=12428 fps=447 q=-0.0 size=N/A time=00:08:38.35 bitrate=N/A speed=18.6x    frame=12675 fps=447 q=-0.0 size=N/A time=00:08:48.65 bitrate=N/A speed=18.6x    frame=12926 fps=448 q=-0.0 size=N/A time=00:08:59.12 bitrate=N/A speed=18.7x    frame=13162 fps=448 q=-0.0 size=N/A time=00:09:08.96 bitrate=N/A speed=18.7x    frame=13404 fps=448 q=-0.0 size=N/A time=00:09:19.05 bitrate=N/A speed=18.7x    frame=13577 fps=446 q=-0.0 size=N/A time=00:09:26.27 bitrate=N/A speed=18.6x    frame=13774 fps=445 q=-0.0 size=N/A time=00:09:34.49 bitrate=N/A speed=18.6x    frame=13932 fps=443 q=-0.0 size=N/A time=00:09:41.08 bitrate=N/A speed=18.5x    frame=14087 fps=441 q=-0.0 size=N/A time=00:09:47.54 bitrate=N/A speed=18.4x    frame=14226 fps=438 q=-0.0 size=N/A time=00:09:53.34 bitrate=N/A speed=18.3x    frame=14418 fps=437 q=-0.0 size=N/A time=00:10:01.35 bitrate=N/A speed=18.2x    frame=14622 fps=436 q=-0.0 size=N/A time=00:10:09.85 bitrate=N/A speed=18.2x    frame=14857 fps=436 q=-0.0 size=N/A time=00:10:19.66 bitrate=N/A speed=18.2x    frame=15116 fps=438 q=-0.0 size=N/A time=00:10:30.46 bitrate=N/A speed=18.2x    frame=15374 fps=438 q=-0.0 size=N/A time=00:10:41.22 bitrate=N/A speed=18.3x    frame=15603 fps=438 q=-0.0 size=N/A time=00:10:50.77 bitrate=N/A speed=18.3x    frame=15817 fps=438 q=-0.0 size=N/A time=00:10:59.70 bitrate=N/A speed=18.3x    frame=16068 fps=439 q=-0.0 size=N/A time=00:11:10.16 bitrate=N/A speed=18.3x    frame=16319 fps=439 q=-0.0 size=N/A time=00:11:20.63 bitrate=N/A speed=18.3x    frame=16571 fps=440 q=-0.0 size=N/A time=00:11:31.14 bitrate=N/A speed=18.4x    frame=16832 fps=441 q=-0.0 size=N/A time=00:11:42.03 bitrate=N/A speed=18.4x    frame=17066 fps=441 q=-0.0 size=N/A time=00:11:51.79 bitrate=N/A speed=18.4x    frame=17297 fps=441 q=-0.0 size=N/A time=00:12:01.42 bitrate=N/A speed=18.4x    frame=17545 fps=442 q=-0.0 size=N/A time=00:12:11.77 bitrate=N/A speed=18.4x    frame=17790 fps=442 q=-0.0 size=N/A time=00:12:21.99 bitrate=N/A speed=18.4x    frame=18040 fps=443 q=-0.0 size=N/A time=00:12:32.41 bitrate=N/A speed=18.5x    frame=18303 fps=444 q=-0.0 size=N/A time=00:12:43.38 bitrate=N/A speed=18.5x    frame=18536 fps=444 q=-0.0 size=N/A time=00:12:53.10 bitrate=N/A speed=18.5x    frame=18780 fps=444 q=-0.0 size=N/A time=00:13:03.28 bitrate=N/A speed=18.5x    frame=19011 fps=444 q=-0.0 size=N/A time=00:13:12.91 bitrate=N/A speed=18.5x    frame=19268 fps=445 q=-0.0 size=N/A time=00:13:23.63 bitrate=N/A speed=18.5x    frame=19533 fps=446 q=-0.0 size=N/A time=00:13:34.68 bitrate=N/A speed=18.6x    frame=19751 fps=445 q=-0.0 size=N/A time=00:13:43.78 bitrate=N/A speed=18.6x    frame=19969 fps=445 q=-0.0 size=N/A time=00:13:52.87 bitrate=N/A speed=18.6x    frame=20236 fps=446 q=-0.0 size=N/A time=00:14:04.00 bitrate=N/A speed=18.6x    frame=20476 fps=446 q=-0.0 size=N/A time=00:14:14.01 bitrate=N/A speed=18.6x    frame=20730 fps=447 q=-0.0 size=N/A time=00:14:24.61 bitrate=N/A speed=18.6x    frame=20967 fps=447 q=-0.0 size=N/A time=00:14:34.49 bitrate=N/A speed=18.6x    frame=21231 fps=447 q=-0.0 size=N/A time=00:14:45.50 bitrate=N/A speed=18.7x    frame=21457 fps=447 q=-0.0 size=N/A time=00:14:54.93 bitrate=N/A speed=18.7x    frame=21694 fps=448 q=-0.0 size=N/A time=00:15:04.82 bitrate=N/A speed=18.7x    frame=21962 fps=448 q=-0.0 size=N/A time=00:15:15.99 bitrate=N/A speed=18.7x    frame=22151 fps=447 q=-0.0 size=N/A time=00:15:23.88 bitrate=N/A speed=18.7x    frame=22347 fps=447 q=-0.0 size=N/A time=00:15:32.05 bitrate=N/A speed=18.6x    frame=22533 fps=446 q=-0.0 size=N/A time=00:15:39.81 bitrate=N/A speed=18.6x    frame=22728 fps=445 q=-0.0 size=N/A time=00:15:47.94 bitrate=N/A speed=18.6x    frame=22930 fps=445 q=-0.0 size=N/A time=00:15:56.37 bitrate=N/A speed=18.5x    frame=23133 fps=444 q=-0.0 size=N/A time=00:16:04.83 bitrate=N/A speed=18.5x    frame=23309 fps=443 q=-0.0 size=N/A time=00:16:12.17 bitrate=N/A speed=18.5x    frame=23520 fps=443 q=-0.0 size=N/A time=00:16:20.98 bitrate=N/A speed=18.5x    frame=23742 fps=443 q=-0.0 size=N/A time=00:16:30.23 bitrate=N/A speed=18.5x    frame=23944 fps=442 q=-0.0 size=N/A time=00:16:38.66 bitrate=N/A speed=18.4x    frame=24201 fps=443 q=-0.0 size=N/A time=00:16:49.38 bitrate=N/A speed=18.5x    frame=24418 fps=443 q=-0.0 size=N/A time=00:16:58.43 bitrate=N/A speed=18.5x    frame=24660 fps=443 q=-0.0 size=N/A time=00:17:08.52 bitrate=N/A speed=18.5x    frame=24909 fps=443 q=-0.0 size=N/A time=00:17:18.91 bitrate=N/A speed=18.5x    frame=25123 fps=443 q=-0.0 size=N/A time=00:17:27.83 bitrate=N/A speed=18.5x    frame=25349 fps=443 q=-0.0 size=N/A time=00:17:37.26 bitrate=N/A speed=18.5x    frame=25581 fps=443 q=-0.0 size=N/A time=00:17:46.94 bitrate=N/A speed=18.5x    frame=25832 fps=443 q=-0.0 size=N/A time=00:17:57.40 bitrate=N/A speed=18.5x    frame=26100 fps=444 q=-0.0 size=N/A time=00:18:08.58 bitrate=N/A speed=18.5x    frame=26367 fps=445 q=-0.0 size=N/A time=00:18:19.72 bitrate=N/A speed=18.5x    frame=26632 fps=445 q=-0.0 size=N/A time=00:18:30.77 bitrate=N/A speed=18.6x    frame=26905 fps=446 q=-0.0 size=N/A time=00:18:42.16 bitrate=N/A speed=18.6x    frame=27165 fps=446 q=-0.0 size=N/A time=00:18:53.00 bitrate=N/A speed=18.6x    frame=27419 fps=447 q=-0.0 size=N/A time=00:19:03.60 bitrate=N/A speed=18.6x    frame=27667 fps=447 q=-0.0 size=N/A time=00:19:13.94 bitrate=N/A speed=18.6x    frame=27914 fps=447 q=-0.0 size=N/A time=00:19:24.24 bitrate=N/A speed=18.7x    frame=28148 fps=447 q=-0.0 size=N/A time=00:19:34.00 bitrate=N/A speed=18.7x    frame=28411 fps=448 q=-0.0 size=N/A time=00:19:44.97 bitrate=N/A speed=18.7x    frame=28659 fps=448 q=-0.0 size=N/A time=00:19:55.31 bitrate=N/A speed=18.7x    frame=28892 fps=448 q=-0.0 size=N/A time=00:20:05.03 bitrate=N/A speed=18.7x    frame=29115 fps=448 q=-0.0 size=N/A time=00:20:14.33 bitrate=N/A speed=18.7x    frame=29366 fps=448 q=-0.0 size=N/A time=00:20:24.80 bitrate=N/A speed=18.7x    frame=29617 fps=449 q=-0.0 size=N/A time=00:20:35.27 bitrate=N/A speed=18.7x    frame=29886 fps=449 q=-0.0 size=N/A time=00:20:46.49 bitrate=N/A speed=18.7x    frame=30146 fps=450 q=-0.0 size=N/A time=00:20:57.33 bitrate=N/A speed=18.8x    frame=30408 fps=450 q=-0.0 size=N/A time=00:21:08.26 bitrate=N/A speed=18.8x    frame=30668 fps=451 q=-0.0 size=N/A time=00:21:19.11 bitrate=N/A speed=18.8x    frame=30936 fps=451 q=-0.0 size=N/A time=00:21:30.28 bitrate=N/A speed=18.8x    frame=31203 fps=452 q=-0.0 size=N/A time=00:21:41.42 bitrate=N/A speed=18.8x    frame=31463 fps=452 q=-0.0 size=N/A time=00:21:52.26 bitrate=N/A speed=18.9x    frame=31729 fps=452 q=-0.0 size=N/A time=00:22:03.36 bitrate=N/A speed=18.9x    frame=31977 fps=453 q=-0.0 size=N/A time=00:22:13.70 bitrate=N/A speed=18.9x    frame=32214 fps=453 q=-0.0 size=N/A time=00:22:23.59 bitrate=N/A speed=18.9x    frame=32473 fps=453 q=-0.0 size=N/A time=00:22:34.39 bitrate=N/A speed=18.9x    frame=32719 fps=453 q=-0.0 size=N/A time=00:22:44.65 bitrate=N/A speed=18.9x    frame=32951 fps=453 q=-0.0 size=N/A time=00:22:54.33 bitrate=N/A speed=18.9x    frame=33132 fps=452 q=-0.0 size=N/A time=00:23:01.88 bitrate=N/A speed=18.9x    frame=33358 fps=452 q=-0.0 size=N/A time=00:23:11.30 bitrate=N/A speed=18.9x    frame=33621 fps=453 q=-0.0 size=N/A time=00:23:22.27 bitrate=N/A speed=18.9x    frame=33808 fps=452 q=-0.0 size=N/A time=00:23:30.07 bitrate=N/A speed=18.9x    frame=34017 fps=452 q=-0.0 size=N/A time=00:23:38.79 bitrate=N/A speed=18.8x    frame=34247 fps=452 q=-0.0 size=N/A time=00:23:48.38 bitrate=N/A speed=18.8x    frame=34475 fps=452 q=-0.0 size=N/A time=00:23:57.89 bitrate=N/A speed=18.8x    [Parsed_psnr_10 @ 0000025e05e5f080] PSNR y:47.754102 u:49.154832 v:49.620277 average:48.231817 min:37.538988 max:inf
[out#0/null @ 0000025e7f990ec0] video:14858KiB audio:270420KiB subtitle:0KiB other streams:0KiB global headers:0KiB muxing overhead: unknown
frame=34578 fps=452 q=-0.0 Lsize=N/A time=00:24:02.19 bitrate=N/A speed=18.8x    
